<svg fill="#ffffff" xmlns="http://www.w3.org/2000/svg"  viewBox="0 0 100 100" width="100px" height="100px"><path d="M 20 22 C 16.145666 22 13 25.145666 13 29 L 13 71 C 13 74.854334 16.145666 78 20 78 L 80 78 C 83.854334 78 87 74.854334 87 71 L 87 29 C 87 25.145666 83.854334 22 80 22 L 20 22 z M 20 24 L 80 24 C 82.767091 24 84.989479 26.215976 85 28.980469 C 84.995028 30.409644 84.311879 31.748678 83.158203 32.59375 L 50 56.880859 L 16.841797 32.59375 C 15.688121 31.748678 15.004972 30.409644 15 28.980469 C 15.007484 27.01398 16.145201 25.342401 17.791016 24.53125 L 49.705078 47.904297 A 0.50005 0.50005 0 0 0 50.294922 47.904297 L 66.679688 35.904297 A 0.50043486 0.50043486 0 0 0 66.089844 35.095703 L 50 46.880859 L 18.925781 24.121094 C 19.272148 24.045922 19.630195 24 20 24 z M 76.517578 27.587891 A 0.50005 0.50005 0 0 0 76.205078 27.689453 L 74.205078 29.152344 A 0.50005 0.50005 0 1 0 74.794922 29.958984 L 76.794922 28.496094 A 0.50005 0.50005 0 0 0 76.517578 27.587891 z M 72.517578 30.515625 A 0.50005 0.50005 0 0 0 72.466797 30.517578 A 0.50005 0.50005 0 0 0 72.205078 30.617188 L 68.205078 33.546875 A 0.50005 0.50005 0 1 0 68.794922 34.353516 L 72.794922 31.423828 A 0.50005 0.50005 0 0 0 72.517578 30.515625 z M 15 32.115234 C 15.341144 32.602218 15.758052 33.040036 16.25 33.400391 A 0.50005 0.50005 0 0 0 16.25 33.402344 L 49.705078 57.904297 A 0.50005 0.50005 0 0 0 50.294922 57.904297 L 83.75 33.402344 A 0.50005 0.50005 0 0 0 83.75 33.400391 C 84.241948 33.040053 84.658856 32.602211 85 32.115234 L 85 71 C 85 73.773666 82.773666 76 80 76 L 20 76 C 17.226334 76 15 73.773666 15 71 L 15 32.115234 z M 22.492188 39.992188 A 0.50005 0.50005 0 0 0 22 40.5 L 22 73.5 A 0.50005 0.50005 0 1 0 23 73.5 L 23 40.5 A 0.50005 0.50005 0 0 0 22.492188 39.992188 z M 77.492188 39.992188 A 0.50005 0.50005 0 0 0 77 40.5 L 77 61.5 A 0.50005 0.50005 0 1 0 78 61.5 L 78 40.5 A 0.50005 0.50005 0 0 0 77.492188 39.992188 z M 77.492188 63.992188 A 0.50005 0.50005 0 0 0 77 64.5 L 77 69.5 A 0.50005 0.50005 0 1 0 78 69.5 L 78 64.5 A 0.50005 0.50005 0 0 0 77.492188 63.992188 z M 77.492188 71.992188 A 0.50005 0.50005 0 0 0 77 72.5 L 77 73.5 A 0.50005 0.50005 0 1 0 78 73.5 L 78 72.5 A 0.50005 0.50005 0 0 0 77.492188 71.992188 z"/></svg>